HIERARCHY
ROOT joint_Root
{
	OFFSET 0.0 0.0 0.0
	CHANNELS 6 Xposition Yposition Zposition Zrotation Xrotation Yrotation 
	JOINT Hips
	{
		OFFSET 4.5925 91.4895 -427.239
		CHANNELS 6 Xposition Yposition Zposition Zrotation Xrotation Yrotation 
		JOINT Spine
		{
			OFFSET 15.7357 0.0 0.0
			CHANNELS 6 Xposition Yposition Zposition Zrotation Xrotation Yrotation 
			JOINT Chest
			{
				OFFSET 8.98455 -0.406207 0.0
				CHANNELS 6 Xposition Yposition Zposition Zrotation Xrotation Yrotation 
				JOINT Neck
				{
					OFFSET 16.3773 0.0 0.0
					CHANNELS 6 Xposition Yposition Zposition Zrotation Xrotation Yrotation 
					JOINT Head
					{
						OFFSET 6.45672 0.0 0.0
						CHANNELS 6 Xposition Yposition Zposition Zrotation Xrotation Yrotation 
						End Site
						{
							OFFSET 0.0 0.0 0.0
						}
					}
				}
				JOINT Shoulder_L
				{
					OFFSET 12.9942 -0.242716 4.98039
					CHANNELS 6 Xposition Yposition Zposition Zrotation Xrotation Yrotation 
					JOINT UpperArm_L
					{
						OFFSET 5.34809 0.0 0.0
						CHANNELS 6 Xposition Yposition Zposition Zrotation Xrotation Yrotation 
						JOINT LowerArm_L
						{
							OFFSET 24.3286 1.87007e-05 0.0
							CHANNELS 6 Xposition Yposition Zposition Zrotation Xrotation Yrotation 
							JOINT Hand_L
							{
								OFFSET 22.2916 0.0 0.0
								CHANNELS 6 Xposition Yposition Zposition Zrotation Xrotation Yrotation 
								End Site
								{
									OFFSET 0.0 0.0 0.0
								}
							}
						}
					}
				}
				JOINT Shoulder_R
				{
					OFFSET 12.9945 -0.242716 -4.98039
					CHANNELS 6 Xposition Yposition Zposition Zrotation Xrotation Yrotation 
					JOINT UpperArm_R
					{
						OFFSET -5.34813 0.0 0.0
						CHANNELS 6 Xposition Yposition Zposition Zrotation Xrotation Yrotation 
						JOINT LowerArm_R
						{
							OFFSET -24.3289 0.000322201 0.0
							CHANNELS 6 Xposition Yposition Zposition Zrotation Xrotation Yrotation 
							JOINT Hand_R
							{
								OFFSET -22.2915 -0.000108084 0.0
								CHANNELS 6 Xposition Yposition Zposition Zrotation Xrotation Yrotation 
								End Site
								{
									OFFSET 0.0 0.0 0.0
								}
							}
						}
					}
				}
			}
		}
		JOINT UpperLeg_L
		{
			OFFSET -2.19248 -6.46944 0.0
			CHANNELS 6 Xposition Yposition Zposition Zrotation Xrotation Yrotation 
			JOINT LowerLeg_L
			{
				OFFSET 39.0811 0.0 -1.23785e-05
				CHANNELS 6 Xposition Yposition Zposition Zrotation Xrotation Yrotation 
				JOINT Foot_L
				{
					OFFSET 40.9854 0.0 -1.26872e-05
					CHANNELS 6 Xposition Yposition Zposition Zrotation Xrotation Yrotation 
					JOINT Toes_L
					{
						OFFSET 11.7543 0.0 0.0
						CHANNELS 6 Xposition Yposition Zposition Zrotation Xrotation Yrotation 
						End Site
						{
							OFFSET 0.0 0.0 0.0
						}
					}
				}
			}
		}
		JOINT UpperLeg_R
		{
			OFFSET -2.19251 6.46944 0.0
			CHANNELS 6 Xposition Yposition Zposition Zrotation Xrotation Yrotation 
			JOINT LowerLeg_R
			{
				OFFSET -39.0811 -0.00228153 -0.0401928
				CHANNELS 6 Xposition Yposition Zposition Zrotation Xrotation Yrotation 
				JOINT Foot_R
				{
					OFFSET -40.9854 0.0 0.0
					CHANNELS 6 Xposition Yposition Zposition Zrotation Xrotation Yrotation 
					JOINT Toes_R
					{
						OFFSET -11.7543 0.0 0.0
						CHANNELS 6 Xposition Yposition Zposition Zrotation Xrotation Yrotation 
						End Site
						{
							OFFSET 0.0 0.0 0.0
						}
					}
				}
			}
		}
	}
}
MOTION
Frames:	4
Frame Time:	0.0333333
0.000000 0.000000 0.000000 0.000000 0.000000 -0.000000 -6.420320 88.031000 36.277900 -91.564600 5.756690 -177.555000 15.735700 0.000005 -0.000001 91.617900 80.826200 -92.919200 8.984550 -0.406207 -0.000000 10.581500 0.482480 -2.645810 16.377300 -0.000001 -0.000001 0.032838 -2.605520 0.909114 6.456720 -0.000001 -0.000000 -3.343390 -1.992040 0.862171 12.994200 -0.242716 4.980390 -90.900800 3.002460 -73.291500 5.348090 -0.000007 -0.000001 -70.607700 30.097400 -8.372210 24.328600 0.000019 0.000005 4.196680 23.438300 -10.452300 22.291600 -0.000001 0.000005 8.365970 5.142490 4.122770 12.994500 -0.242716 -4.980390 88.427000 9.498340 -80.551900 -5.348130 -0.000001 -0.000004 -55.450900 26.933100 -18.219200 -24.328900 0.000322 -0.000009 -0.433724 -0.539458 -38.727800 -22.291500 -0.000108 -0.000004 18.714400 5.438120 -4.219570 -2.192480 -6.469440 -0.000000 179.697000 -6.235910 -27.276300 39.081100 -0.000007 -0.000012 -0.123203 0.147406 39.889700 40.985400 -0.000006 -0.000013 0.152839 1.578320 -60.637900 11.754300 -0.000000 0.000003 -0.000085 -0.000894 -16.612000 -2.192510 6.469440 -0.000001 175.700000 10.306900 173.884000 -39.081100 -0.002282 -0.040193 0.033160 -0.031827 43.203000 -40.985400 0.000008 0.000006 6.850860 2.304990 -77.527100 -11.754300 -0.000006 -0.000006 -0.013916 -0.130878 -21.911300
0.000000 0.000000 0.000000 0.000000 0.000000 -0.000000 -6.979690 87.874300 33.218300 -91.245600 6.462970 -176.677000 15.735700 0.000005 -0.000001 92.408300 80.628400 -93.676800 8.984550 -0.406207 -0.000000 10.971000 0.746338 -2.607310 16.377300 -0.000001 -0.000001 0.388596 -2.436250 0.592804 6.456720 -0.000001 -0.000000 -3.078980 -2.040730 0.716136 12.994200 -0.242716 4.980390 -90.943000 3.082790 -72.982700 5.348090 -0.000007 -0.000001 -69.947500 29.299100 -9.009520 24.328600 0.000019 0.000005 3.977240 23.670800 -9.824790 22.291600 -0.000001 0.000005 8.469540 5.126570 4.497250 12.994500 -0.242716 -4.980390 88.414400 9.584440 -80.560600 -5.348130 -0.000001 -0.000004 -56.713100 26.210800 -16.823900 -24.328900 0.000322 -0.000009 -0.473915 -0.594112 -38.515000 -22.291500 -0.000108 -0.000004 18.970000 5.443950 -4.424670 -2.192480 -6.469440 -0.000000 179.854000 -6.116380 -25.360900 39.081100 -0.000007 -0.000012 -0.184881 0.201814 42.493200 40.985400 -0.000006 -0.000013 0.355069 0.797983 -64.273200 11.754300 -0.000000 0.000003 -0.000178 -0.001674 -16.640900 -2.192510 6.469440 -0.000001 175.347000 8.861430 172.456000 -39.081100 -0.002282 -0.040193 0.064681 -0.051867 49.826100 -40.985400 0.000008 0.000006 6.930470 1.471970 -72.972200 -11.754300 -0.000006 -0.000006 -0.043067 -0.272109 -27.760000
0.000000 0.000000 0.000000 0.000000 0.000000 -0.000000 -7.483990 87.910200 30.448600 -91.061800 7.361780 -175.930000 15.735700 0.000005 -0.000001 93.077900 80.435000 -94.326400 8.984550 -0.406207 -0.000000 11.349500 0.980064 -2.593550 16.377300 -0.000001 -0.000001 0.519500 -2.203160 0.395374 6.456720 -0.000001 -0.000000 -3.051620 -1.806100 0.336143 12.994200 -0.242716 4.980390 -90.947900 3.079170 -72.880800 5.348090 -0.000007 -0.000001 -69.209000 28.223900 -9.602310 24.328600 0.000019 0.000005 4.297920 22.918100 -10.923800 22.291600 -0.000001 0.000005 9.164000 5.123150 4.578240 12.994500 -0.242716 -4.980390 88.437700 9.505440 -80.621900 -5.348130 -0.000001 -0.000004 -58.065100 25.858300 -15.848200 -24.328900 0.000322 -0.000009 -0.631926 -0.832301 -37.162900 -22.291500 -0.000108 -0.000004 18.989800 5.442750 -4.382220 -2.192480 -6.469440 -0.000000 179.808000 -7.070680 -22.978000 39.081100 -0.000007 -0.000012 -0.209774 0.220451 43.578900 40.985400 -0.000006 -0.000013 0.789377 0.720484 -67.011200 11.754300 -0.000000 0.000003 -0.000236 -0.002126 -16.657400 -2.192510 6.469440 -0.000001 175.102000 7.407060 169.073000 -39.081100 -0.002282 -0.040193 0.099354 -0.060522 57.809100 -40.985400 0.000008 0.000006 6.441880 0.780685 -65.883200 -11.754300 -0.000006 -0.000006 -0.052619 -0.306979 -29.225700
0.000000 0.000000 0.000000 0.000000 0.000000 -0.000000 -7.816020 88.051000 27.937800 -90.812500 7.704430 -175.537000 15.735700 0.000005 -0.000001 92.466200 80.349500 -93.647100 8.984550 -0.406207 -0.000000 11.527000 0.785066 -2.440260 16.377300 -0.000001 -0.000001 0.485698 -1.996280 0.184118 6.456720 -0.000001 -0.000000 -3.054270 -1.531440 0.266826 12.994200 -0.242716 4.980390 -90.929000 3.032040 -72.956300 5.348090 -0.000007 -0.000001 -68.039600 27.596600 -10.390300 24.328600 0.000019 0.000005 4.934820 21.795900 -13.091700 22.291600 -0.000001 0.000005 10.188900 5.139410 4.196550 12.994500 -0.242716 -4.980390 88.428700 9.550600 -80.612000 -5.348130 -0.000001 -0.000004 -59.035000 26.234900 -15.255500 -24.328900 0.000322 -0.000009 -0.627938 -0.891999 -35.097600 -22.291500 -0.000108 -0.000004 18.658400 5.438510 -4.233040 -2.192480 -6.469440 -0.000000 179.896000 -7.641130 -20.704900 39.081100 -0.000007 -0.000012 -0.229526 0.239539 43.777700 40.985400 -0.000006 -0.000013 1.138310 0.796649 -69.085400 11.754300 -0.000000 0.000003 -0.000267 -0.002356 -16.665700 -2.192510 6.469440 -0.000001 175.184000 7.293780 165.143000 -39.081100 -0.002282 -0.040193 0.135537 -0.062575 64.698500 -40.985400 0.000008 0.000006 4.590130 -1.080860 -59.463600 -11.754300 -0.000006 -0.000006 -0.020976 -0.172637 -23.628300
